<?xml version="1.0" standalone="no"?>
<!DOCTYPE svg PUBLIC "-//W3C//DTD SVG 20010904//EN"
 "http://www.w3.org/TR/2001/REC-SVG-20010904/DTD/svg10.dtd">
<svg version="1.0" xmlns="http://www.w3.org/2000/svg"
 width="1856.000000pt" height="1856.000000pt" viewBox="0 0 1856.000000 1856.000000"
 preserveAspectRatio="xMidYMid meet">
<metadata>
Created by potrace 1.14, written by Peter Selinger 2001-2017
</metadata>
<g transform="translate(0.000000,1856.000000) scale(0.100000,-0.100000)"
fill="#000000" stroke="none">
<path d="M6930 11979 c-98 -25 -86 -21 -156 -55 -101 -51 -154 -92 -239 -187
-29 -33 -92 -160 -99 -202 -3 -16 -8 -41 -11 -55 -15 -77 -3 -209 29 -297 63
-177 252 -328 476 -379 107 -24 315 -24 415 0 77 19 225 83 225 97 0 5 6 9 14
9 22 0 150 130 181 183 82 143 101 314 51 478 -23 76 -73 160 -133 225 -40 43
-154 119 -210 140 -27 10 -52 21 -58 25 -5 4 -46 15 -89 24 -108 22 -296 19
-396 -6z"/>
<path d="M10850 11980 c-163 -40 -288 -117 -392 -237 -14 -17 -24 -34 -21 -37
4 -3 1 -6 -5 -6 -6 0 -21 -21 -32 -47 -11 -27 -24 -55 -29 -63 -8 -15 -13 -35
-26 -100 -8 -36 -9 -196 -2 -207 4 -5 9 -25 12 -44 3 -19 13 -47 21 -63 7 -16
14 -33 14 -37 0 -26 107 -154 169 -203 55 -42 193 -112 243 -121 11 -2 27 -6
36 -9 87 -26 313 -27 427 -2 11 2 57 18 101 35 184 71 319 210 373 382 32 100
26 276 -11 366 -6 16 -12 34 -14 41 -1 7 -21 42 -44 78 -78 119 -192 203 -348
257 -80 28 -100 30 -242 33 -125 2 -170 -1 -230 -16z"/>
<path d="M8177 10074 c-1 -1 -45 -4 -97 -8 -52 -4 -106 -8 -120 -10 -77 -12
-141 -23 -177 -31 -13 -3 -31 -7 -41 -9 -65 -15 -197 -53 -227 -67 -11 -4 -45
-18 -75 -29 -322 -124 -616 -374 -779 -662 -11 -21 -29 -53 -39 -70 -55 -98
-128 -308 -157 -451 -2 -10 -6 -26 -9 -35 -3 -9 -7 -37 -10 -62 -3 -25 -8 -72
-12 -105 -15 -136 -8 -398 16 -552 34 -214 138 -489 245 -649 25 -37 45 -70
45 -74 0 -5 3 -10 8 -12 4 -1 25 -25 46 -53 51 -64 177 -190 241 -241 28 -21
52 -41 55 -44 16 -16 88 -60 98 -60 7 0 12 -4 12 -8 0 -5 21 -20 48 -33 26
-13 49 -27 50 -31 2 -5 9 -8 16 -8 7 0 35 -11 63 -25 93 -44 275 -106 362
-122 14 -2 28 -6 33 -9 9 -6 18 -8 123 -24 211 -34 528 -34 695 -1 25 5 46 9
48 10 131 22 286 68 427 126 345 140 649 425 810 760 37 78 86 193 90 215 3
12 28 97 36 120 5 14 11 41 14 60 4 19 10 55 16 79 17 78 24 173 24 361 -1
246 -14 352 -71 551 -34 118 -127 339 -146 347 -5 2 -8 9 -8 14 0 52 -248 353
-365 443 -102 79 -139 105 -145 105 -5 0 -15 6 -22 13 -19 19 -141 80 -238
120 -123 50 -271 96 -370 113 -14 3 -31 7 -38 9 -8 3 -37 8 -65 11 -29 4 -55
8 -58 10 -12 7 -344 24 -352 18z m205 -1059 c190 -48 324 -185 404 -411 26
-75 28 -89 30 -274 1 -107 -1 -199 -4 -205 -4 -5 -8 -20 -10 -32 -3 -26 -46
-143 -64 -175 -57 -103 -164 -228 -194 -228 -8 0 -14 -3 -14 -8 0 -11 -90 -50
-156 -67 -54 -13 -71 -16 -126 -15 -10 0 -24 0 -30 -1 -41 -2 -130 14 -173 32
-16 6 -36 13 -44 15 -8 1 -17 6 -20 11 -3 4 -22 17 -42 27 -130 68 -244 258
-278 461 -16 94 -11 286 9 384 29 145 95 268 190 359 57 55 169 116 230 127
19 4 53 10 75 14 55 9 148 4 217 -14z"/>
<path d="M16727 10074 c-1 -1 -42 -5 -92 -8 -49 -3 -101 -8 -115 -11 -14 -3
-43 -8 -65 -11 -38 -5 -115 -22 -220 -48 -20 -4 -120 -38 -140 -46 -11 -4 -36
-14 -55 -21 -62 -22 -238 -110 -250 -125 -7 -8 -17 -14 -22 -14 -9 0 -101 -66
-153 -110 -43 -36 -195 -190 -188 -190 3 0 -6 -12 -21 -26 -14 -15 -36 -43
-48 -63 -12 -20 -25 -38 -28 -41 -7 -5 -100 -169 -100 -175 0 -2 -13 -32 -29
-67 -43 -95 -69 -171 -98 -282 -47 -189 -60 -303 -57 -538 1 -212 6 -262 40
-428 16 -74 57 -217 74 -255 5 -11 21 -49 36 -85 126 -310 411 -616 712 -764
142 -71 342 -142 447 -160 17 -3 55 -10 85 -16 103 -21 155 -24 350 -24 230
-1 323 10 525 58 59 14 227 77 315 119 88 41 300 175 300 189 0 4 5 8 10 8 11
0 20 8 121 105 39 39 88 90 108 115 20 25 42 52 50 60 67 70 213 355 236 460
1 3 7 25 14 50 7 25 15 57 17 71 l5 25 -641 0 -641 -1 -30 -61 c-17 -34 -50
-81 -73 -105 -49 -51 -86 -82 -86 -72 0 3 -8 -1 -17 -9 -15 -13 -40 -25 -73
-33 -3 -1 -12 -5 -20 -8 -8 -4 -26 -9 -40 -11 -14 -3 -25 -5 -25 -6 0 -9 -182
-2 -225 8 -30 7 -59 14 -65 15 -70 17 -191 118 -232 194 -52 95 -83 212 -87
323 l-1 35 1140 1 c627 1 1143 2 1147 3 30 5 46 397 23 551 -8 47 -16 97 -19
113 -3 15 -8 39 -11 55 -4 15 -15 56 -25 92 -11 36 -20 68 -20 72 0 4 -10 29
-21 55 -11 27 -28 66 -37 88 -26 60 -91 186 -114 219 -71 103 -117 158 -203
246 -61 62 -243 210 -259 210 -3 0 -26 13 -51 29 -25 16 -85 45 -133 65 -48
21 -96 41 -107 46 -66 30 -328 99 -395 105 -25 2 -56 7 -69 9 -56 12 -345 28
-354 20z m209 -955 c3 -5 14 -9 25 -9 25 0 119 -39 137 -57 7 -7 18 -13 23
-13 5 0 31 -21 58 -47 49 -48 116 -156 125 -203 2 -14 8 -43 13 -65 7 -33 9
-80 4 -117 -1 -4 -16 -8 -33 -8 -18 0 -42 0 -53 0 -11 -1 -239 -1 -507 -1
l-487 1 5 47 c8 82 51 205 85 247 5 6 25 31 45 56 62 77 183 149 287 170 55
11 266 10 273 -1z"/>
<path d="M2099 10056 c-2 -2 -24 -6 -49 -9 -163 -20 -348 -89 -492 -184 -93
-61 -232 -198 -291 -288 l-46 -69 0 159 c0 88 0 206 -1 263 l0 102 -610 0
-610 0 0 -1712 0 -1713 608 0 607 0 2 958 c1 840 3 966 17 1030 24 107 77 204
156 285 54 55 205 125 298 137 227 29 402 -22 533 -155 54 -54 114 -156 124
-209 2 -13 9 -39 15 -57 8 -22 12 -341 13 -1011 l2 -978 595 -1 c327 0 600 2
607 4 8 3 11 241 12 965 0 529 3 976 6 992 9 50 37 128 59 168 37 68 41 73 58
91 10 9 21 23 25 30 14 23 106 88 158 111 129 59 284 73 445 40 24 -5 93 -31
125 -49 56 -30 62 -34 125 -97 74 -74 115 -153 147 -284 3 -11 6 -456 8 -990
1 -533 3 -972 4 -975 0 -3 272 -5 604 -5 l602 0 0 1075 c0 951 -3 1145 -19
1225 -2 11 -7 40 -11 65 -4 25 -14 72 -22 105 -8 33 -16 65 -18 70 -1 6 -5 19
-9 30 -5 11 -12 34 -18 50 -55 162 -160 331 -288 464 -58 60 -215 181 -236
181 -8 0 -14 4 -14 8 0 9 -72 43 -178 86 -65 26 -198 61 -267 71 -22 4 -51 9
-65 11 -50 10 -366 13 -420 4 -30 -5 -71 -12 -91 -15 -20 -3 -65 -14 -100 -24
-283 -81 -560 -278 -724 -514 -33 -47 -64 -86 -68 -86 -4 -1 -11 7 -14 17 -31
82 -191 275 -294 354 -17 12 -36 28 -43 35 -22 19 -138 87 -201 117 -177 84
-336 118 -571 122 -99 2 -183 2 -185 0z"/>
<path d="M14708 10055 c-2 -2 -30 -6 -63 -9 -33 -3 -94 -15 -135 -27 -41 -11
-82 -22 -90 -24 -39 -9 -198 -82 -222 -103 -10 -8 -18 -12 -18 -8 0 4 -6 2
-12 -4 -7 -6 -38 -27 -69 -48 -153 -101 -272 -214 -391 -369 -26 -35 -49 -59
-51 -55 -2 4 -3 141 -3 305 1 164 -1 303 -4 308 -4 6 -242 8 -611 7 l-604 -3
0 -1703 c0 -937 2 -1707 5 -1711 8 -11 1210 -8 1210 4 0 5 2 370 3 810 2 440
7 811 11 825 4 14 9 40 12 59 2 19 8 39 11 45 4 6 9 18 10 27 4 27 58 126 94
173 72 93 228 172 397 201 23 4 54 9 70 11 15 3 142 7 282 9 140 2 262 4 270
4 13 1 15 79 15 638 l-1 638 -57 1 c-31 1 -57 0 -59 -1z"/>
<path d="M10544 8318 l1 -1713 603 0 c332 0 606 4 609 8 4 6 7 3237 4 3395
l-1 22 -609 0 -608 0 1 -1712z"/>
</g>
</svg>
