 <svg xmlns="http://www.w3.org/2000/svg" xmlns:xlink="http://www.w3.org/1999/xlink"><symbol id="icon-arrow-left"><path fill="none" d="M6.319 11.034l-5-5 5-5" stroke="#222"></path></symbol><symbol id="icon-arrow-right"><path fill="none" d="M1.25 11.034l5-5-5-5" stroke="#222"></path></symbol><symbol id="icon-arrow" viewBox="0 0 10 6"><path d="M1 1l4 4 4-4" stroke="#000" stroke-linecap="round"></path></symbol><symbol id="icon-cart" viewBox="0 0 19 24"><path fill="#000" fill-rule="evenodd" clip-rule="evenodd" d="M9.895.752c-2.6 0-4.779 1.955-4.779 4.45v.684H4.094a2.5 2.5 0 00-2.497 2.372l-.65 12.686a2.5 2.5 0 002.496 2.628h12.903a2.5 2.5 0 002.497-2.628l-.65-12.686a2.5 2.5 0 00-2.497-2.372h-1.023v-.685c0-2.494-2.178-4.45-4.778-4.45zm4.778 8.362a.854.854 0 01-.5 1.55.856.856 0 01-.5-1.55V6.886H6.116v2.228a.855.855 0 01-.5 1.55.856.856 0 01-.5-1.55V6.886H4.094a1.5 1.5 0 00-1.499 1.423l-.65 12.686a1.5 1.5 0 001.498 1.577h12.903a1.5 1.5 0 001.498-1.577l-.65-12.686a1.5 1.5 0 00-1.498-1.423h-1.023v2.228zm-1-3.228v-.685c0-1.868-1.653-3.45-3.778-3.45-2.126 0-3.779 1.582-3.779 3.45v.685h7.557z"></path></symbol><symbol id="icon-close" viewBox="0 0 18 18"><path d="M17 1L1 17m16 0L1 1" stroke="#9D9D9D" stroke-width=".8"></path></symbol><symbol id="icon-facebook" viewBox="0 0 17 17"><path d="M15.454 0H1.545C.692 0 0 .692 0 1.545v13.91C0 16.308.692 17 1.545 17h7.728v-6.954H6.955V7.727h2.318V6.482c0-2.356 1.148-3.391 3.107-3.391.938 0 1.434.07 1.669.101V5.41h-1.336c-.831 0-1.122.439-1.122 1.328v.99h2.437l-.33 2.319H11.59V17h3.864c.853 0 1.545-.692 1.545-1.546V1.545A1.544 1.544 0 0015.454 0z"></path></symbol><symbol id="icon-insta" viewBox="0 0 17 17"><path d="M4.957 0A4.964 4.964 0 000 4.96v7.083A4.964 4.964 0 004.96 17h7.083A4.964 4.964 0 0017 12.04V4.957A4.964 4.964 0 0012.04 0H4.957zm8.501 2.833a.709.709 0 110 1.418.709.709 0 010-1.418zM8.5 4.25a4.254 4.254 0 014.25 4.25 4.254 4.254 0 01-4.25 4.25A4.254 4.254 0 014.25 8.5 4.254 4.254 0 018.5 4.25zm0 1.417a2.833 2.833 0 100 5.666 2.833 2.833 0 000-5.666z"></path></symbol><symbol id="icon-minus" viewBox="0 0 9 3"><path d="M8.287 2.574H.7V.765h7.587v1.809z"></path></symbol><symbol id="icon-plus" viewBox="0 0 12 12"><path d="M6.524 11.086h-1.43v-4.51H.54V5.102h4.554V.57h1.43v4.532h4.554v1.474H6.524v4.51z"></path></symbol><symbol id="icon-search" viewBox="0 0 20 20"><path clip-rule="evenodd" d="M13.224 3.097A7.16 7.16 0 113.097 13.224 7.16 7.16 0 0113.224 3.097zm.728 10.813a8.16 8.16 0 10-.042.042l-.7.7 5.049 5.05a1.02 1.02 0 101.442-1.443l-5.049-5.05-.7.7z"></path></symbol><symbol id="icon-telegram" viewBox="0 0 19 17"><path d="M.393 7.855l4.324 1.614 1.674 5.383a.509.509 0 00.809.243l2.41-1.965a.72.72 0 01.877-.024l4.348 3.156a.51.51 0 00.798-.308L18.818.634a.51.51 0 00-.682-.58L.388 6.902a.51.51 0 00.005.954zm5.729.755l8.451-5.206c.152-.093.308.112.178.233l-6.975 6.484a1.446 1.446 0 00-.448.865l-.238 1.76c-.031.236-.362.26-.426.032L5.75 9.567a.851.851 0 01.372-.957z"></path></symbol><symbol id="icon-twitter" viewBox="0 0 18 15"><path d="M17.062 2.007a7.009 7.009 0 01-2.01.55A3.51 3.51 0 0016.59.62a6.989 6.989 0 01-2.222.85 3.5 3.5 0 00-5.965 3.194 9.94 9.94 0 01-7.215-3.659c-.3.519-.473 1.12-.473 1.76a3.5 3.5 0 001.557 2.914 3.492 3.492 0 01-1.586-.438v.045a3.502 3.502 0 002.808 3.432 3.526 3.526 0 01-1.58.06 3.502 3.502 0 003.27 2.43A7.025 7.025 0 010 12.659a9.9 9.9 0 005.365 1.574c6.44 0 9.96-5.334 9.96-9.96 0-.15-.004-.302-.01-.452a7.116 7.116 0 001.745-1.81l.002-.003z"></path></symbol><symbol id="icon-vk" viewBox="0 0 20 11"><path clip-rule="evenodd" d="M19.541.745c.14-.43 0-.745-.662-.745h-2.188c-.556 0-.812.273-.951.573 0 0-1.113 2.512-2.69 4.143-.51.473-.741.623-1.02.623-.138 0-.347-.15-.347-.58V.745c0-.515-.154-.745-.618-.745H7.627c-.348 0-.557.24-.557.466 0 .488.788.6.87 1.975v2.984c0 .654-.128.773-.406.773-.742 0-2.546-2.523-3.617-5.41C3.707.227 3.497 0 2.938 0H.75C.125 0 0 .273 0 .573c0 .537.742 3.199 3.454 6.72C5.262 9.696 7.809 11 10.127 11c1.391 0 1.563-.29 1.563-.788V8.395c0-.58.132-.695.572-.695.325 0 .881.15 2.18 1.31 1.483 1.374 1.727 1.99 2.562 1.99h2.188c.625 0 .938-.29.757-.86-.197-.57-.905-1.396-1.845-2.375-.51-.558-1.275-1.16-1.507-1.46-.324-.387-.232-.558 0-.902 0 0 2.666-3.477 2.944-4.658z"></path></symbol>
 <symbol  fill="none" id="moire-logo">
 <g clip-path="url(#clip0)"><path d="M34.935 14.57c-1.533-1.63-3.667-2.444-6.399-2.444a8.096 8.096 0 00-4.215 1.127 8.555 8.555 0 00-3.016 2.996 7.419 7.419 0 00-2.9-3.054 8.463 8.463 0 00-4.292-1.069 7.814 7.814 0 00-3.905.936 6.756 6.756 0 00-2.578 2.545v-3.29H0V33.72h7.617V22.357a3.697 3.697 0 01.986-2.767c.358-.334.78-.593 1.243-.76.462-.167.953-.24 1.445-.214a3.55 3.55 0 011.388.216c.443.164.848.415 1.19.738a3.574 3.574 0 01.953 2.698V33.72h7.605V22.357a3.696 3.696 0 01.986-2.767 3.62 3.62 0 011.242-.76c.462-.167.954-.24 1.445-.214.473-.021.945.052 1.388.216.443.164.848.415 1.19.738a3.571 3.571 0 01.967 2.698V33.72h7.591V21.288c0-2.85-.767-5.09-2.3-6.718zm22.421-1.21a9.755 9.755 0 014.04 3.818A11.28 11.28 0 0162.866 23a11.25 11.25 0 01-1.47 5.84 9.921 9.921 0 01-4.04 3.818 13.371 13.371 0 01-5.83 1.336 13.37 13.37 0 01-5.828-1.336 9.89 9.89 0 01-4.06-3.818 11.247 11.247 0 01-1.47-5.84 11.247 11.247 0 011.437-5.822 9.762 9.762 0 014.06-3.817 13.548 13.548 0 0111.69 0zm-8.481 6.325a4.768 4.768 0 00-1.044 3.321 4.824 4.824 0 001.044 3.36c.326.369.731.663 1.185.86.455.198.947.295 1.444.285a3.332 3.332 0 002.578-1.165 4.838 4.838 0 001.044-3.34 4.769 4.769 0 00-1.044-3.321 3.342 3.342 0 00-1.16-.855 3.382 3.382 0 00-1.418-.29 3.427 3.427 0 00-1.444.284 3.373 3.373 0 00-1.185.86zm24.63-7.368V33.72h-7.617V12.317h7.617zm15.042.955a7.912 7.912 0 014.098-1.146v8.017h-2.204c-1.718 0-2.994.324-3.828.973-.833.65-1.263 1.775-1.289 3.379v9.225H77.72V12.317h7.617v4.009a9.876 9.876 0 013.21-3.054zM116 22.624a11.043 11.043 0 00-1.373-5.573 9.32 9.32 0 00-3.866-3.703 13.164 13.164 0 00-11.446 0 9.384 9.384 0 00-3.905 3.817 11.743 11.743 0 00-1.392 5.84 11.85 11.85 0 001.392 5.86 9.303 9.303 0 001.901 2.367 9.258 9.258 0 002.037 1.45A12.11 12.11 0 00105.044 34c.452 0 .904-.024 1.354-.07a11.313 11.313 0 003.557-.96 10.15 10.15 0 003.712-2.845 9.03 9.03 0 001.908-4.04h-8.043a2.676 2.676 0 01-1.005 1.413 3.078 3.078 0 01-1.856.534c-2.011 0-3.085-1.209-3.223-3.626h14.359a8.892 8.892 0 00.193-1.782zm-14.5-1.374a3.623 3.623 0 011.102-2.481 3.567 3.567 0 012.442-.84 3.33 3.33 0 012.32.84 3.08 3.08 0 01.903 2.48H101.5z" fill="#150C26"/><path d="M65.862 1.088A4.736 4.736 0 0169.084 0a4.593 4.593 0 013.223 1.088 3.584 3.584 0 011.198 2.768 3.392 3.392 0 01-.305 1.47c-.21.463-.522.873-.913 1.202a4.659 4.659 0 01-3.222 1.069 4.796 4.796 0 01-3.222-1.07 3.409 3.409 0 01-.926-1.197 3.367 3.367 0 01-.311-1.474 3.506 3.506 0 01.313-1.524 3.56 3.56 0 01.943-1.244zm-24.489 0A4.736 4.736 0 0144.596 0a4.593 4.593 0 013.222 1.088c.39.348.7.776.907 1.254.207.478.306.994.291 1.514a3.391 3.391 0 01-.305 1.47c-.21.463-.522.873-.913 1.202a4.659 4.659 0 01-3.222 1.069 4.795 4.795 0 01-3.222-1.07 3.409 3.409 0 01-.926-1.197 3.367 3.367 0 01-.311-1.474 3.506 3.506 0 01.313-1.524 3.56 3.56 0 01.943-1.244z" fill="#E02D71"/></g><defs><clipPath id="clip0"><path fill="#fff" d="M0 0h116v34H0z"/></clipPath></defs></svg>
 </symbol>
 </svg>